<svg width="1301" height="935" viewBox="0 0 1301 935" fill="none" xmlns="http://www.w3.org/2000/svg">
<path d="M130.967 130.902L130.351 261.189C58.3459 260.849 0.275331 202.26 0.615138 130.287C0.954946 58.3141 59.5762 0.275485 131.582 0.615448L130.967 130.902Z" fill="#FFA53B"/>
<path d="M1281.85 745.602L1273.99 677C1242.8 680.575 1213.23 690.047 1186.22 705.548C1160.06 720.248 1137.25 739.71 1118.44 763.398C1099.62 787.085 1085.82 813.709 1077.43 842.52C1068.44 872.336 1065.9 903.283 1069.48 934.465L1138.08 926.601C1133.1 883.175 1145.28 840.357 1172.5 806.344C1199.47 772.128 1238.42 750.579 1281.85 745.602Z" fill="#00C4CC"/>
<path d="M1145.07 69C1110.79 69 1083 96.7829 1083 131.054C1083 165.325 1110.79 193.108 1145.07 193.108C1179.35 193.108 1207.14 165.325 1207.14 131.054C1207.14 96.7829 1179.35 69 1145.07 69Z" fill="#6422B8"/>
</svg>
